HIERARCHY
ROOT Hips
{
 OFFSET 0.000000 0.000000 0.000000
 CHANNELS 6 Xposition Yposition Zposition Yrotation Xrotation Zrotation
 JOINT Chest
 {
  OFFSET 0.000000 9.585900 0.002600
  CHANNELS 3 Yrotation Xrotation Zrotation
  JOINT Chest2
  {
   OFFSET 0.000000 9.601200 -0.005300
   CHANNELS 3 Yrotation Xrotation Zrotation
   JOINT Chest3
   {
    OFFSET 0.000000 9.561800 0.000000
    CHANNELS 3 Yrotation Xrotation Zrotation
    JOINT Chest4
    {
     OFFSET 0.000000 9.552100 0.000000
     CHANNELS 3 Yrotation Xrotation Zrotation
     JOINT Neck
     {
      OFFSET 0.000000 14.453000 0.000000
      CHANNELS 3 Yrotation Xrotation Zrotation
      JOINT Head
      {
       OFFSET 0.000000 8.936500 -0.011300
       CHANNELS 3 Yrotation Xrotation Zrotation
       End Site
       {
        OFFSET 0.000000 17.073600 -0.006000
       }
      }
     }
     JOINT RightCollar
     {
      OFFSET -2.921100 9.558500 0.000000
      CHANNELS 3 Yrotation Xrotation Zrotation
      JOINT RightShoulder
      {
       OFFSET -13.519700 0.000000 0.000000
       CHANNELS 3 Yrotation Xrotation Zrotation
       JOINT RightElbow
       {
        OFFSET 0.000000 -29.696600 0.000000
        CHANNELS 3 Yrotation Xrotation Zrotation
        JOINT RightWrist
        {
         OFFSET 0.000000 -24.004700 0.000000
         CHANNELS 3 Yrotation Xrotation Zrotation
         End Site
         {
          OFFSET 0.000000 -17.728500 0.000000
         }
        }
       }
      }
     }
     JOINT LeftCollar
     {
      OFFSET 2.921100 9.558500 0.000000
      CHANNELS 3 Yrotation Xrotation Zrotation
      JOINT LeftShoulder
      {
       OFFSET 13.519700 0.000000 0.000000
       CHANNELS 3 Yrotation Xrotation Zrotation
       JOINT LeftElbow
       {
        OFFSET 0.000000 -29.696600 0.000000
        CHANNELS 3 Yrotation Xrotation Zrotation
        JOINT LeftWrist
        {
         OFFSET 0.000000 -24.004700 0.000000
         CHANNELS 3 Yrotation Xrotation Zrotation
         End Site
         {
          OFFSET 0.000000 -17.728500 0.000000
         }
        }
       }
      }
     }
    }
   }
  }
 }
 JOINT RightHip
 {
  OFFSET -7.771700 -0.012900 -0.001300
  CHANNELS 3 Yrotation Xrotation Zrotation
  JOINT RightKnee
  {
   OFFSET 0.000000 -40.869800 0.001200
   CHANNELS 3 Yrotation Xrotation Zrotation
   JOINT RightAnkle
   {
    OFFSET 0.000000 -39.717900 0.002100
    CHANNELS 3 Yrotation Xrotation Zrotation
    JOINT RightToe
    {
     OFFSET 0.000000 -4.965400 11.033500
     CHANNELS 3 Yrotation Xrotation Zrotation
     End Site
     {
      OFFSET 0.000000 -1.423100 5.872300
     }
    }
   }
  }
 }
 JOINT LeftHip
 {
  OFFSET 7.771700 -0.012900 -0.001300
  CHANNELS 3 Yrotation Xrotation Zrotation
  JOINT LeftKnee
  {
   OFFSET 0.000000 -40.869800 0.001200
   CHANNELS 3 Yrotation Xrotation Zrotation
   JOINT LeftAnkle
   {
    OFFSET 0.000000 -39.717900 0.002100
    CHANNELS 3 Yrotation Xrotation Zrotation
    JOINT LeftToe
    {
     OFFSET 0.000000 -4.965400 11.033500
     CHANNELS 3 Yrotation Xrotation Zrotation
     End Site
     {
      OFFSET 0.000000 -1.423100 5.872300
     }
    }
   }
  }
 }
}
MOTION
Frames: 9
Frame Time: 0.008333
0.000000 85.388000 0.000000 0.000000 -5.767877 0.000000 0.000000 11.653817 0.000000 0.000000 -5.885947 0.000000 0.000000 -0.000000 0.000000 0.000000 -0.000000 0.000000 0.000000 12.528835 0.000000 0.000000 0.711642 0.000000 0.000000 -0.000000 0.000000 0.000000 0.000000 -90.000000 0.000000 -2.309062 0.000000 0.000000 2.309062 0.000000 0.000000 -0.000000 0.000000 0.000000 -0.000000 90.000000 0.000000 -2.309062 0.000000 0.000000 2.309062 0.000000 0.000000 8.520406 0.000000 0.000000 1.905762 0.000000 -0.000000 -4.658285 0.000000 0.000000 -0.000000 0.000000 0.000000 8.520406 0.000000 0.000000 1.905762 0.000000 -0.000000 -4.658285 0.000000 0.000000 -0.000000 0.000000
14.948501 50.020177 53.047843 173.816066 -30.575397 -7.058914 7.317315 18.730738 6.581081 0.787544 2.405168 0.592105 1.381207 4.068670 0.970071 6.085613 16.220511 4.689755 0.277169 18.876852 2.445066 -0.093380 -0.672582 4.383062 -1.228637 -4.402216 -5.251654 10.131056 -6.883160 -0.163678 147.020748 -67.795341 -152.458805 -1.505241 -10.299471 -5.723646 -10.113693 -3.185254 0.216132 -0.624141 -7.902147 0.498830 -134.965055 -53.143400 141.951305 18.944766 -19.944191 13.843533 -1.003839 -49.887697 10.668373 -130.432738 85.520403 -119.117140 -2.392696 -13.401526 -3.221095 -0.189865 0.830278 -0.076081 -9.705379 -53.753672 16.891978 -153.340473 80.464227 -161.118629 0.184737 -16.829542 8.299936 -0.329733 -0.654754 -0.072199
14.943316 50.024834 53.059516 173.777552 -30.516433 -7.071333 7.380045 18.708989 6.606196 0.796532 2.411194 0.594219 1.379805 4.054099 0.972825 6.133149 16.230894 4.697359 0.332686 18.847503 2.480188 -0.174430 -0.770490 4.438428 -1.350833 -4.346453 -5.235754 9.696500 -6.791521 -0.176659 146.848156 -67.750691 -152.443806 -1.489761 -10.245081 -5.850016 -10.110510 -3.217220 0.240585 -0.460142 -7.864395 0.532436 -134.983649 -53.131105 141.988206 18.916344 -19.974857 13.932333 -1.008162 -49.937570 10.709909 -129.825215 85.520978 -118.519904 -2.332267 -13.391405 -3.205012 -0.201688 0.847283 -0.089004 -9.684259 -53.812033 16.937136 -153.297452 80.475890 -161.069047 0.175530 -16.829899 8.311956 -0.336402 -0.650067 -0.074224
14.935449 50.033525 53.065332 173.774820 -30.491419 -7.084217 7.410371 18.726180 6.618132 0.830406 2.460776 0.587047 1.363791 4.008445 0.981708 6.171957 16.227766 4.702568 0.317584 18.803309 2.504521 -0.211152 -0.851480 4.488614 -1.451445 -4.310780 -5.223421 9.255265 -6.664772 -0.175904 146.784826 -67.723064 -152.531860 -1.496980 -10.189817 -5.955630 -10.099498 -3.249229 0.261632 -0.302998 -7.835621 0.577342 -135.041201 -53.127165 142.037092 18.888229 -20.023377 14.044315 -1.019842 -49.947200 10.713914 -129.658910 85.543268 -118.358300 -2.283578 -13.389548 -3.210195 -0.191395 0.852757 -0.088022 -9.670514 -53.833063 16.949988 -153.233245 80.485924 -161.003163 0.158438 -16.820300 8.317468 -0.326889 -0.655008 -0.070186
14.929278 50.043176 53.070698 173.759186 -30.470481 -7.097362 7.454511 18.745583 6.640597 0.836302 2.462347 0.587373 1.382575 4.023939 0.980490 6.199240 16.211119 4.706922 0.294324 18.757644 2.526043 -0.262075 -0.934864 4.536303 -1.537240 -4.279759 -5.219505 8.816829 -6.521049 -0.162747 146.833414 -67.715680 -152.723106 -1.525843 -10.143892 -6.050681 -10.079875 -3.280878 0.278831 -0.154660 -7.816675 0.629912 -135.140189 -53.140604 142.109108 18.871014 -20.083814 14.170880 -1.030824 -49.956437 10.735661 -129.391018 85.559127 -118.093059 -2.268627 -13.373581 -3.215859 -0.183247 0.845756 -0.082121 -9.665193 -53.847526 16.978727 -153.170188 80.493042 -160.937612 0.140264 -16.814199 8.313116 -0.317863 -0.660297 -0.063476
14.924071 50.050729 53.079175 173.736515 -30.424642 -7.107063 7.486964 18.717534 6.659008 0.853621 2.486577 0.587364 1.372772 4.001218 0.980914 6.249258 16.232169 4.710660 0.262965 18.710752 2.543335 -0.326606 -1.020342 4.578896 -1.609451 -4.253395 -5.224393 8.385677 -6.362216 -0.133036 146.963519 -67.725159 -152.988404 -1.571198 -10.120890 -6.140271 -10.052793 -3.306494 0.291201 -0.019425 -7.809950 0.687821 -135.280202 -53.175198 142.209748 18.866518 -20.146042 14.303557 -1.044184 -49.987405 10.752434 -129.060362 85.576614 -117.758318 -2.251885 -13.370769 -3.229552 -0.170261 0.847789 -0.076895 -9.670384 -53.887403 17.028607 -153.054196 80.499333 -160.835042 0.133290 -16.809057 8.324409 -0.318000 -0.663267 -0.064274
14.916094 50.055772 53.089055 173.730281 -30.356184 -7.098416 7.492976 18.672616 6.647733 0.865647 2.497697 0.587354 1.397806 4.025505 0.980624 6.269353 16.214146 4.710435 0.223229 18.665205 2.558577 -0.405842 -1.103139 4.620378 -1.671889 -4.229618 -5.232887 7.967761 -6.193042 -0.085203 147.127691 -67.745690 -153.283912 -1.623402 -10.132956 -6.231208 -10.069246 -3.336863 0.309403 0.144924 -7.798923 0.745378 -135.457406 -53.229086 142.337046 18.867175 -20.197493 14.431718 -1.047469 -50.045992 10.735002 -128.942416 85.596030 -117.643940 -2.266023 -13.379199 -3.230651 -0.184906 0.858096 -0.074532 -9.666486 -53.953731 17.043111 -152.934306 80.509554 -160.732684 0.121447 -16.799168 8.337255 -0.323921 -0.671225 -0.080467
14.907027 50.060364 53.096450 173.741595 -30.291872 -7.077381 7.497761 18.655765 6.621046 0.846383 2.463798 0.587582 1.442439 4.068608 0.979076 6.285281 16.196193 4.708865 0.174851 18.624587 2.572908 -0.450183 -1.144851 4.646015 -1.725628 -4.207108 -5.241868 7.565379 -6.017587 -0.021721 147.264882 -67.765216 -153.551327 -1.674739 -10.178336 -6.331903 -10.085150 -3.359595 0.329538 0.290591 -7.792142 0.802954 -135.657211 -53.293442 142.479787 18.871557 -20.224509 14.544129 -1.045625 -50.097525 10.698213 -128.728019 85.604154 -117.417384 -2.401033 -13.399837 -3.209006 -0.202827 0.866288 -0.085207 -9.650543 -54.014636 17.025836 -152.811573 80.526031 -160.638870 0.112990 -16.783002 8.361559 -0.333506 -0.677404 -0.085583
14.900118 50.065505 53.100314 173.752214 -30.243278 -7.052628 7.544210 18.681246 6.606875 0.821674 2.431694 0.585815 1.428489 4.045332 0.979115 6.297259 16.192850 4.707890 0.147955 18.607329 2.577271 -0.586841 -1.221134 4.693242 -1.740531 -4.168855 -5.261481 7.181988 -5.837104 0.049867 147.325087 -67.772028 -153.747113 -1.715811 -10.245844 -6.445583 -9.969252 -3.324240 0.315710 0.317351 -7.820784 0.875134 -135.895326 -53.342464 142.617573 18.864569 -20.208159 14.678277 -1.039579 -50.132435 10.661383 -128.503262 85.602658 -117.160656 -2.615846 -13.429684 -3.181424 -0.215683 0.870612 -0.103153 -9.630379 -54.061332 16.990379 -152.792755 80.540722 -160.633399 0.097020 -16.769813 8.370954 -0.332197 -0.687615 -0.093050
